<?xml version="1.0" standalone="no"?>
<!DOCTYPE svg PUBLIC "-//W3C//DTD SVG 20010904//EN"
 "http://www.w3.org/TR/2001/REC-SVG-20010904/DTD/svg10.dtd">
<svg version="1.0" xmlns="http://www.w3.org/2000/svg"
 width="500.000000pt" height="500.000000pt" viewBox="0 0 500.000000 500.000000"
 preserveAspectRatio="xMidYMid meet">

<g transform="translate(0.000000,500.000000) scale(0.100000,-0.100000)"
fill="#000000" stroke="none">
<path d="M0 2500 l0 -2500 2500 0 2500 0 0 2500 0 2500 -2500 0 -2500 0 0
-2500z m4873 0 l2 -2390 -2392 0 -2393 0 0 2389 c0 2230 1 2390 17 2393 9 2
1085 2 2390 1 l2373 -3 3 -2390z"/>
<path d="M130 4855 c0 -3 0 -1058 0 -2345 0 -1287 0 -2347 0 -2355 0 -13 268
-15 2355 -15 l2355 0 0 2360 0 2360 -2355 0 c-1295 0 -2355 -2 -2355 -5z
m4570 -2657 l0 -23 -800 0 -800 0 0 23 0 22 800 0 800 0 0 -22z m-2792 -8 c-3
-21 -7 -21 -803 -20 -794 0 -800 0 -803 20 -3 20 0 20 803 20 805 0 806 0 803
-20z"/>
</g>
</svg>
